<svg xmlns="http://www.w3.org/2000/svg" width="59.939" height="52.915" viewBox="0 0 59.939 52.915"><defs><style>.a{fill:#c5090a;}.b{fill:#fff;}</style></defs><g transform="translate(29.97 26.458)"><g transform="translate(-29.97 -26.458)"><path class="a" d="M44.018,0a14.192,14.192,0,0,0-8.863,3.063,19.807,19.807,0,0,0-4.791,5.545.458.458,0,0,1-.788,0,19.805,19.805,0,0,0-4.791-5.545A14.191,14.191,0,0,0,15.921,0C6.845,0,0,7.424,0,17.269,0,27.905,8.539,35.183,21.467,46.2c2.2,1.871,4.684,3.992,7.27,6.253a1.874,1.874,0,0,0,2.466,0c2.587-2.262,5.075-4.382,7.271-6.254C51.4,35.183,59.939,27.905,59.939,17.269,59.939,7.424,53.095,0,44.018,0Z"/><path class="b" d="M186.922,132.559a2.941,2.941,0,0,0-3.029-3.08H167.515a2.931,2.931,0,0,0-3.125,3.242v17.443c0,1.519.943,2.544,3.27,2.544h9.449a1.251,1.251,0,0,0,1.272-1.272v-2.151a.728.728,0,0,0-.794-.757h-7.564a1.435,1.435,0,0,1-1.453-1.453v-10.9s0-2.181,1.817-2.181H180.3a2.156,2.156,0,0,1,2.443,2.181v15.4c0,.524.182,1.135.953,1.135h2.137c1.112,0,1.09-.611,1.09-1.135Z" transform="translate(-145.686 -114.747)"/></g></g></svg>