<svg xmlns="http://www.w3.org/2000/svg" width="466.672" height="108.259" viewBox="0 0 466.672 108.259"><defs><style>.a{fill:#0267c1;}.b{fill:#7c94cc;}.c{fill:#9ca8d5;}</style></defs><g transform="translate(-832.123 -121.582)"><g transform="translate(832.123 121.582)"><g transform="translate(67.561 0)"><path class="a" d="M223.519-406.187q-8.057,0-12.9-4.756t-4.842-13.241a27.031,27.031,0,0,1,6.256-18.04q6.255-7.412,16.883-7.413,8.227,0,13.069,4.756t4.842,13.155q0,10.971-5.956,18.255T223.519-406.187Zm.942-11.484q4.114,0,6.728-3.942a16.362,16.362,0,0,0,2.614-9.256q0-4.027-1.8-5.656a5.962,5.962,0,0,0-4.114-1.629q-4.03,0-6.556,4.071a17.1,17.1,0,0,0-2.528,9.213,7.713,7.713,0,0,0,1.671,5.356A5.2,5.2,0,0,0,224.462-417.671Z" transform="translate(-205.779 470.034)"/><path class="a" d="M313.382-424.974a38.467,38.467,0,0,1-18.34-4.371l7.37-59.562h12.855l-3.257,27.168.171.085q4.969-6.855,12.17-6.856a11.748,11.748,0,0,1,10.027,4.884q3.6,4.885,3.6,12.513,0,11.826-6.3,18.983T313.382-424.974Zm-.257-11.483a10.393,10.393,0,0,0,8.7-4.028,15.72,15.72,0,0,0,3.128-9.942,7.99,7.99,0,0,0-1.329-4.714,4.072,4.072,0,0,0-3.471-1.885q-3.772,0-7.028,4.628t-4.285,12.6l-.343,2.742A19.028,19.028,0,0,0,313.125-436.457Z" transform="translate(-248.678 488.907)"/><path class="a" d="M398.7-406.187a23.28,23.28,0,0,1-9.17-1.928,17.891,17.891,0,0,1-7.2-5.271l7.2-7.456a14.865,14.865,0,0,0,4.5,3.6,10.794,10.794,0,0,0,5.014,1.371q3.856,0,3.857-2.314a2.009,2.009,0,0,0-.9-1.628,32.887,32.887,0,0,0-4.156-2.314q-.944-.514-1.457-.771a24.677,24.677,0,0,1-7.671-5.485,10.714,10.714,0,0,1-2.528-7.284,12.764,12.764,0,0,1,4.456-10.07,16.188,16.188,0,0,1,11.056-3.9q9.513,0,15.084,6.685l-7.8,7.37q-3-4.114-7.2-4.285a4.028,4.028,0,0,0-2.357.685,2.175,2.175,0,0,0-.985,1.885q0,1.716,5.913,4.628a31.045,31.045,0,0,1,8.313,5.571,10.03,10.03,0,0,1,2.657,7.284,12.211,12.211,0,0,1-4.5,9.9Q406.323-406.186,398.7-406.187Z" transform="translate(-290.627 470.034)"/></g><path class="b" d="M500.568-407.3q-13.8,0-22.54-8.656t-8.742-23.311a39.143,39.143,0,0,1,1.242-9.684,38.073,38.073,0,0,1,4.157-9.856,36.682,36.682,0,0,1,7.156-8.785,32.774,32.774,0,0,1,10.841-6.213,42.376,42.376,0,0,1,14.57-2.4q14.4,0,22.882,8.613t8.485,22.24a31.449,31.449,0,0,1-.471,5.314,25.992,25.992,0,0,1-1.8,5.828,22.058,22.058,0,0,1-3.342,5.485,15.124,15.124,0,0,1-5.356,3.942,17.8,17.8,0,0,1-7.542,1.543q-5.4,0-8.228-3.514a9.918,9.918,0,0,1-2.057-4.456h-.171q-4.714,7.028-12.426,7.028a11.267,11.267,0,0,1-8.7-3.814q-3.471-3.812-3.471-10.584a23.248,23.248,0,0,1,5.228-15.426,16.057,16.057,0,0,1,12.77-6.256q5.827,0,9.17,3.171l.257-.086.342-2.571h9.428l-2.314,18.854q-.687,5.4-.686,6.342,0,3.943,3.771,3.942a5.648,5.648,0,0,0,4.542-2.614,17.26,17.26,0,0,0,2.871-5.913,23.377,23.377,0,0,0,.9-6.127q0-10.455-6.557-17.355t-17.526-6.9a34.619,34.619,0,0,0-11.57,1.842,26.83,26.83,0,0,0-8.741,4.885,28.721,28.721,0,0,0-5.914,7.071,31.317,31.317,0,0,0-3.471,8.142,32.815,32.815,0,0,0-1.072,8.313q0,11.228,6.985,18.126a23.4,23.4,0,0,0,17.1,6.9,39.274,39.274,0,0,0,18.083-4.371l3.171,5.142A37.956,37.956,0,0,1,500.568-407.3Zm-.6-25.368q3.684,0,7.114-4.157a18.776,18.776,0,0,0,4.114-9.984l.343-2.314a11.466,11.466,0,0,0-7.285-2.571q-3.942,0-6.727,3.813a13.984,13.984,0,0,0-2.786,8.442,7.305,7.305,0,0,0,1.543,5.1A4.845,4.845,0,0,0,499.968-432.665Z" transform="translate(-264.858 482.801)"/><g transform="translate(278.902 0)"><path class="a" d="M628.01-406.034a21.1,21.1,0,0,1-8.914-1.971,14.848,14.848,0,0,1-6.428-5.228l6.171-6.085q3.857,5.058,9.171,5.056a9.133,9.133,0,0,0,4.713-1.114,3.372,3.372,0,0,0,1.885-3,3.009,3.009,0,0,0-1.414-2.485,29.706,29.706,0,0,0-4.842-2.571,3.073,3.073,0,0,1-.428-.171l-.429-.215a3.955,3.955,0,0,0-.514-.214q-10.371-4.541-10.37-12.341a11.512,11.512,0,0,1,4.2-9.213,15.374,15.374,0,0,1,10.284-3.556q9.256,0,14.569,5.913l-6.256,6.342a10.312,10.312,0,0,0-8.4-4.2,5.5,5.5,0,0,0-3.556,1.071,3.5,3.5,0,0,0-1.329,2.871q0,2.743,6.856,6l2.572,1.286q.513.257,2.357,1.328a11.889,11.889,0,0,1,2.485,1.757q.643.686,1.757,1.885a6.816,6.816,0,0,1,1.543,2.528,9.309,9.309,0,0,1,.429,2.871q.083,6.428-4.328,9.941T628.01-406.034Z" transform="translate(-612.669 469.796)"/><path class="a" d="M705.055-406.12q-8.058,0-12.684-4.542t-4.627-13.2a27.338,27.338,0,0,1,6.042-17.912,19.734,19.734,0,0,1,16.069-7.37q10.455,0,15.255,7.028l-7.37,5.485q-2.658-3.942-8.142-3.942a10.673,10.673,0,0,0-8.87,4.585,18.274,18.274,0,0,0-3.471,11.356q0,5.058,2.357,7.5a7.823,7.823,0,0,0,5.87,2.443q5.227,0,9.427-4.457l7.37,5.314Q714.824-406.12,705.055-406.12Z" transform="translate(-648.749 469.796)"/><path class="a" d="M783.649-406.034q-7.115,0-10.756-4.757T769.251-423a30.042,30.042,0,0,1,5.785-18.255q5.785-7.885,14.784-7.885,7.026,0,10.97,4.028l.257-.086.428-3.257h9.342l-5.142,41.737h-9.342l.943-7.627-.257-.086a21.026,21.026,0,0,1-6.385,6.256A13.49,13.49,0,0,1,783.649-406.034Zm1.8-8.313q4.628,0,8.913-5.785t5.485-15.04l.171-1.543a13.3,13.3,0,0,0-9.513-3.857q-5.229,0-8.484,5.442a23.478,23.478,0,0,0-3.257,12.3,10.084,10.084,0,0,0,1.714,6.213A5.844,5.844,0,0,0,785.449-414.347Z" transform="translate(-687.921 469.796)"/><path class="a" d="M863.96-425.83l7.713-63.077H881.1l-7.8,63.077Z" transform="translate(-733.438 488.907)"/><path class="a" d="M923.345-414.69q5.142,0,9.513-4.457l7.37,5.314a30.076,30.076,0,0,1-7.756,5.828A21.258,21.258,0,0,1,923-406.12q-7.886,0-12.427-4.628t-4.542-12.77q0-10.712,5.913-18.169t16.026-7.456a15.257,15.257,0,0,1,9.513,3,9.864,9.864,0,0,1,3.942,8.313q0,13.285-25.968,16.2a7.848,7.848,0,0,0,2.743,5.142A7.947,7.947,0,0,0,923.345-414.69Zm4.2-25.968a10.579,10.579,0,0,0-7.028,2.914,15.547,15.547,0,0,0-4.628,8.57q16.025-1.8,16.026-8.227Q931.915-440.657,927.544-440.658Z" transform="translate(-753.658 469.796)"/></g><g transform="translate(68.219 81.616)"><path class="b" d="M211.781-304.234l-4.735-13.92h3.281l2.938,9.242h.057l2.738-9.242h2.653l2.8,9.242h.057l2.938-9.242h3.223l-4.735,13.92h-2.938l-2.682-8.757h-.028l-2.682,8.757Z" transform="translate(-207.046 325.228)"/><path class="b" d="M253.507-310.78v-20.994H256.7v8.814h.029a6.1,6.1,0,0,1,4.735-1.94,5.118,5.118,0,0,1,3.808,1.4,6.041,6.041,0,0,1,1.383,4.393v8.329h-3.195v-7.5a4.357,4.357,0,0,0-.756-2.867,2.845,2.845,0,0,0-2.268-.87,3.553,3.553,0,0,0-2.753,1.07,4.415,4.415,0,0,0-.984,3.1v7.074Z" transform="translate(-229.375 331.774)"/><path class="b" d="M299.678-311.55a9.956,9.956,0,0,1-.085,1.226H289.438a3.94,3.94,0,0,0,1.384,2.367,4.177,4.177,0,0,0,2.7.856,4.278,4.278,0,0,0,3.509-1.626l2.225,1.911a7.006,7.006,0,0,1-5.905,2.625,7.126,7.126,0,0,1-5.206-1.969,6.972,6.972,0,0,1-2.011-5.22,7.059,7.059,0,0,1,1.954-5.177,6.762,6.762,0,0,1,5.035-1.983,6.164,6.164,0,0,1,4.735,1.969A7.1,7.1,0,0,1,299.678-311.55Zm-4.393-3.352a3.2,3.2,0,0,0-2.2-.756,3.635,3.635,0,0,0-2.3.742,3.7,3.7,0,0,0-1.3,2.082h6.96A3.874,3.874,0,0,0,295.286-314.9Z" transform="translate(-245.053 325.413)"/><path class="b" d="M319.959-304.419v-13.92h3.195v2.082h.057a5.187,5.187,0,0,1,4.307-2.282h.4v3.566q-.742-.057-.97-.057a3.548,3.548,0,0,0-2.781,1.127,4.164,4.164,0,0,0-1.013,2.9v6.589Z" transform="translate(-261.311 325.413)"/><path class="b" d="M352.95-311.55a9.976,9.976,0,0,1-.086,1.226H342.709a3.935,3.935,0,0,0,1.384,2.367,4.177,4.177,0,0,0,2.7.856,4.278,4.278,0,0,0,3.509-1.626l2.225,1.911a7.005,7.005,0,0,1-5.9,2.625,7.126,7.126,0,0,1-5.206-1.969,6.974,6.974,0,0,1-2.011-5.22,7.059,7.059,0,0,1,1.954-5.177,6.763,6.763,0,0,1,5.035-1.983,6.164,6.164,0,0,1,4.735,1.969A7.093,7.093,0,0,1,352.95-311.55Zm-4.393-3.352a3.2,3.2,0,0,0-2.2-.756,3.636,3.636,0,0,0-2.3.742,3.7,3.7,0,0,0-1.3,2.082h6.96A3.871,3.871,0,0,0,348.557-314.9Z" transform="translate(-270.655 325.413)"/><path class="b" d="M389.321-310.78v-20.994h3.195v8.814h.029a6.1,6.1,0,0,1,4.735-1.94,5.116,5.116,0,0,1,3.808,1.4,6.041,6.041,0,0,1,1.384,4.393v8.329h-3.195v-7.5a4.356,4.356,0,0,0-.756-2.867,2.846,2.846,0,0,0-2.268-.87,3.553,3.553,0,0,0-2.752,1.07,4.413,4.413,0,0,0-.984,3.1v7.074Z" transform="translate(-294.646 331.774)"/><path class="b" d="M428.207-304.005q-5.221,0-5.221-5.677v-8.472h3.195v7.616a4.634,4.634,0,0,0,.642,2.824,2.57,2.57,0,0,0,2.125.8,3.212,3.212,0,0,0,2.525-1.212,4.981,4.981,0,0,0,1.041-3.352v-6.675h3.195v13.92h-3.195v-1.74l-.057-.029A5.268,5.268,0,0,1,428.207-304.005Z" transform="translate(-310.825 325.228)"/><path class="b" d="M456.651-304.419v-13.92h3.195v1.911h.029a5.453,5.453,0,0,1,4.336-2.111,4.33,4.33,0,0,1,4.165,2.311h.057a5.968,5.968,0,0,1,4.992-2.311,4.452,4.452,0,0,1,3.608,1.512,6.975,6.975,0,0,1,1.269,4.564v8.044h-3.195v-7.245q0-3.993-2.71-3.994a2.863,2.863,0,0,0-2.325,1.155,4.9,4.9,0,0,0-.927,3.152v6.931H465.95v-7.245q0-3.993-2.767-3.994a2.947,2.947,0,0,0-2.41,1.155,4.9,4.9,0,0,0-.927,3.152v6.931Z" transform="translate(-327.005 325.413)"/><path class="b" d="M512.37-304.19a6.424,6.424,0,0,1-4.835-1.969,7.126,7.126,0,0,1-1.9-5.163,7.273,7.273,0,0,1,1.911-5.177,6.292,6.292,0,0,1,4.792-2.04,5.173,5.173,0,0,1,4.307,1.911l.057-.029v-1.683H519.9v13.92h-3.052v-1.825l-.057-.029A5.167,5.167,0,0,1,512.37-304.19Zm.514-2.91a3.8,3.8,0,0,0,2.81-1.17,4.12,4.12,0,0,0,1.155-3.023,4.484,4.484,0,0,0-1.127-3.109,3.652,3.652,0,0,0-2.838-1.255,3.775,3.775,0,0,0-2.853,1.2,4.4,4.4,0,0,0-1.141,3.166A4.206,4.206,0,0,0,510-308.27,3.8,3.8,0,0,0,512.884-307.1Z" transform="translate(-350.548 325.413)"/><path class="b" d="M542.214-304.419v-13.92h3.195v1.911h.057a5.77,5.77,0,0,1,4.65-2.111,4.876,4.876,0,0,1,3.751,1.455,6.392,6.392,0,0,1,1.354,4.479v8.186h-3.195v-7.359a4.633,4.633,0,0,0-.756-2.995,2.82,2.82,0,0,0-2.268-.885,3.3,3.3,0,0,0-2.625,1.113,4.624,4.624,0,0,0-.97,3.138v6.989Z" transform="translate(-368.126 325.413)"/><path class="b" d="M597.755-304.19a6.912,6.912,0,0,1-5.106-2,6.985,6.985,0,0,1-2-5.163,6.969,6.969,0,0,1,2.025-5.191,7.082,7.082,0,0,1,5.191-2,8.2,8.2,0,0,1,3.252.671,6.7,6.7,0,0,1,2.6,1.925l-2.168,1.883a4.414,4.414,0,0,0-3.509-1.6,3.974,3.974,0,0,0-3,1.184,4.274,4.274,0,0,0-1.141,3.1,4.272,4.272,0,0,0,1.141,3.1,3.97,3.97,0,0,0,3,1.184,4.132,4.132,0,0,0,3.509-1.626l2.2,1.939A7.086,7.086,0,0,1,597.755-304.19Z" transform="translate(-391.405 325.413)"/><path class="b" d="M627.918-304.19a6.422,6.422,0,0,1-4.835-1.969,7.124,7.124,0,0,1-1.9-5.163A7.273,7.273,0,0,1,623.1-316.5a6.294,6.294,0,0,1,4.793-2.04,5.174,5.174,0,0,1,4.307,1.911l.057-.029v-1.683h3.194v13.92H632.4v-1.825l-.057-.029A5.167,5.167,0,0,1,627.918-304.19Zm.514-2.91a3.8,3.8,0,0,0,2.81-1.17,4.118,4.118,0,0,0,1.155-3.023,4.486,4.486,0,0,0-1.127-3.109,3.653,3.653,0,0,0-2.839-1.255,3.775,3.775,0,0,0-2.853,1.2,4.4,4.4,0,0,0-1.141,3.166,4.208,4.208,0,0,0,1.112,3.023A3.8,3.8,0,0,0,628.432-307.1Z" transform="translate(-406.079 325.413)"/><path class="b" d="M657.763-298.77v-19.569h3.195v1.654h.057a5.494,5.494,0,0,1,4.393-1.854,6.326,6.326,0,0,1,4.821,2.04,7.273,7.273,0,0,1,1.911,5.177,7.1,7.1,0,0,1-1.911,5.163,6.47,6.47,0,0,1-4.849,1.969,5.349,5.349,0,0,1-4.365-1.94l-.057.029v7.331Zm4.222-9.5a3.947,3.947,0,0,0,2.909,1.17,3.809,3.809,0,0,0,2.867-1.17,4.179,4.179,0,0,0,1.127-3.023,4.371,4.371,0,0,0-1.155-3.166,3.822,3.822,0,0,0-2.867-1.2,3.78,3.78,0,0,0-2.91,1.241,4.438,4.438,0,0,0-1.141,3.124A4.09,4.09,0,0,0,661.985-308.27Z" transform="translate(-423.658 325.413)"/><path class="b" d="M696.246-326.668a2.11,2.11,0,0,1-1.526.628,2.06,2.06,0,0,1-1.512-.628,2.059,2.059,0,0,1-.628-1.512,2.027,2.027,0,0,1,.628-1.483,2.061,2.061,0,0,1,1.512-.627,2.11,2.11,0,0,1,1.526.627,2.008,2.008,0,0,1,.641,1.483A2.039,2.039,0,0,1,696.246-326.668Zm-3.124,16.6v-13.92h3.195v13.92Z" transform="translate(-440.391 331.061)"/><path class="b" d="M712.339-308.6a3.6,3.6,0,0,1-2.853-1.17,5.09,5.09,0,0,1-1.027-3.451v-6.818h-1.712v-2.71h1.712v-4.621l3.195-.342v4.963h4.079v2.71h-4.079v6.5a2.672,2.672,0,0,0,.314,1.5,1.17,1.17,0,0,0,1.027.442,4.38,4.38,0,0,0,2.054-.6l.828,2.767A7.255,7.255,0,0,1,712.339-308.6Z" transform="translate(-447.2 329.821)"/><path class="b" d="M734.9-304.19a6.424,6.424,0,0,1-4.835-1.969,7.126,7.126,0,0,1-1.9-5.163,7.273,7.273,0,0,1,1.911-5.177,6.292,6.292,0,0,1,4.792-2.04,5.173,5.173,0,0,1,4.307,1.911l.057-.029v-1.683h3.195v13.92h-3.053v-1.825l-.057-.029A5.166,5.166,0,0,1,734.9-304.19Zm.514-2.91a3.8,3.8,0,0,0,2.809-1.17,4.118,4.118,0,0,0,1.155-3.023,4.484,4.484,0,0,0-1.126-3.109,3.653,3.653,0,0,0-2.838-1.255,3.777,3.777,0,0,0-2.853,1.2,4.4,4.4,0,0,0-1.141,3.166,4.207,4.207,0,0,0,1.113,3.023A3.8,3.8,0,0,0,735.413-307.1Z" transform="translate(-457.494 325.413)"/><path class="b" d="M765.127-310.78v-20.994h3.195v20.994Z" transform="translate(-475.256 331.774)"/><path class="b" d="M799.934-308.6a3.6,3.6,0,0,1-2.853-1.17,5.091,5.091,0,0,1-1.027-3.451v-6.818h-1.711v-2.71h1.711v-4.621l3.195-.342v4.963h4.079v2.71h-4.079v6.5a2.676,2.676,0,0,0,.314,1.5,1.171,1.171,0,0,0,1.027.442,4.382,4.382,0,0,0,2.054-.6l.827,2.767A7.255,7.255,0,0,1,799.934-308.6Z" transform="translate(-489.298 329.821)"/><path class="b" d="M818.562-310.78v-20.994h3.195v8.814h.029a6.1,6.1,0,0,1,4.735-1.94,5.117,5.117,0,0,1,3.808,1.4,6.041,6.041,0,0,1,1.383,4.393v8.329h-3.195v-7.5a4.354,4.354,0,0,0-.756-2.867,2.844,2.844,0,0,0-2.268-.87,3.555,3.555,0,0,0-2.753,1.07,4.416,4.416,0,0,0-.984,3.1v7.074Z" transform="translate(-500.937 331.774)"/><path class="b" d="M852.776-304.419v-13.92h3.195v2.082h.057a5.189,5.189,0,0,1,4.308-2.282h.4v3.566q-.742-.057-.97-.057a3.549,3.549,0,0,0-2.781,1.127,4.167,4.167,0,0,0-1.013,2.9v6.589Z" transform="translate(-517.38 325.413)"/><path class="b" d="M877.586-326.668a2.11,2.11,0,0,1-1.526.628,2.061,2.061,0,0,1-1.512-.628,2.059,2.059,0,0,1-.628-1.512,2.027,2.027,0,0,1,.628-1.483,2.061,2.061,0,0,1,1.512-.627,2.11,2.11,0,0,1,1.526.627,2.007,2.007,0,0,1,.642,1.483A2.038,2.038,0,0,1,877.586-326.668Zm-3.124,16.6v-13.92h3.195v13.92Z" transform="translate(-527.542 331.061)"/><path class="b" d="M893.484-304.234l-5.506-13.92H891.4l3.623,9.927h.029l3.623-9.927h3.394l-5.534,13.92Z" transform="translate(-534.298 325.228)"/><path class="b" d="M931.9-311.55a9.973,9.973,0,0,1-.086,1.226H921.658a3.94,3.94,0,0,0,1.384,2.367,4.177,4.177,0,0,0,2.7.856,4.279,4.279,0,0,0,3.509-1.626l2.225,1.911a7,7,0,0,1-5.9,2.625,7.127,7.127,0,0,1-5.206-1.969,6.973,6.973,0,0,1-2.011-5.22,7.06,7.06,0,0,1,1.953-5.177,6.764,6.764,0,0,1,5.035-1.983,6.163,6.163,0,0,1,4.735,1.969A7.093,7.093,0,0,1,931.9-311.55Zm-4.393-3.352a3.2,3.2,0,0,0-2.2-.756,3.635,3.635,0,0,0-2.3.742,3.7,3.7,0,0,0-1.3,2.082h6.96A3.87,3.87,0,0,0,927.505-314.9Z" transform="translate(-548.894 325.413)"/><path class="b" d="M955.546-304.19a8.158,8.158,0,0,1-5.619-2.025l1.6-2.4a5.523,5.523,0,0,0,4.022,1.626,2.4,2.4,0,0,0,1.426-.371,1.17,1.17,0,0,0,.513-1,.95.95,0,0,0-.585-.813,15.264,15.264,0,0,0-2.154-.87,9.084,9.084,0,0,1-3.152-1.711,3.657,3.657,0,0,1-1.1-2.853,3.471,3.471,0,0,1,1.384-2.824,5.446,5.446,0,0,1,3.523-1.113,7.559,7.559,0,0,1,4.906,1.741l-1.6,2.51a4.957,4.957,0,0,0-3.48-1.483,1.9,1.9,0,0,0-1.041.3,1,1,0,0,0-.471.9q0,.856,2.2,1.683a20.244,20.244,0,0,1,3.394,1.541,3.357,3.357,0,0,1,1.426,2.938,3.887,3.887,0,0,1-1.327,3.038A5.629,5.629,0,0,1,955.546-304.19Z" transform="translate(-564.07 325.413)"/></g><path class="c" d="M191.16-312.952" transform="translate(-131.192 404.344)"/><path class="a" d="M160.4-459.474l-9.512,80.33-.057.767,0,.049c-1.1,9.475-14.1-5.949-16.868-22.726,0,0-3.053-.932-7.517-2.285L148.8-459.474a14.771,14.771,0,0,1,5.785-1.187A14.071,14.071,0,0,1,160.4-459.474Z" transform="translate(-100.087 475.333)"/><path class="a" d="M84.52-352.985c-8.014,13.032-8.815,21.459-8.815,21.459s4.658,9.713,11.227,10.754l34.115.027c-3.922-.2-12.489-11.858-14.758-25.618Z" transform="translate(-75.705 423.584)"/><path class="a" d="M183.767-487.282c-.72,5.145-5.429,10.825-5.429,10.825a16.834,16.834,0,0,0-12.373,0c-4.046-4.142-4.394-10.825-4.394-10.825S170.961-490.939,183.767-487.282Z" transform="translate(-116.972 488.907)"/></g></g></svg>